<?xml version="1.0" encoding="UTF-8"?>
<svg version="1.1" xmlns="http://www.w3.org/2000/svg" width="1024" height="1024">
<path d="M0 0 C337.92 0 675.84 0 1024 0 C1024 337.92 1024 675.84 1024 1024 C686.08 1024 348.16 1024 0 1024 C0 686.08 0 348.16 0 0 Z " fill="#FAFAFA" transform="translate(0,0)"/>
<path d="M0 0 C0.66 0 1.32 0 2 0 C1.99723462 0.96852465 1.99446924 1.93704929 1.99162006 2.93492317 C1.92503702 26.49551042 1.87573013 50.05608546 1.84456348 73.6167469 C1.82909113 85.01048246 1.80799451 96.40415588 1.77368164 107.79785156 C1.74379064 117.72798163 1.72442768 127.6580667 1.71773452 137.5882405 C1.71382177 142.84674707 1.70461849 148.10512491 1.68280983 153.36359024 C1.66244948 158.31293515 1.65616532 163.26209828 1.66067696 168.21148109 C1.65985156 170.02793554 1.65388324 171.84439605 1.64238358 173.66081429 C1.62744646 176.14186664 1.6310507 178.62223362 1.63923645 181.103302 C1.63049793 181.82121418 1.6217594 182.53912636 1.61275607 183.27879345 C1.66134508 188.73146598 3.07901078 192.62215392 6.4987793 196.85522461 C7.01867432 197.36577393 7.53856934 197.87632324 8.07421875 198.40234375 C8.65510254 198.97871582 9.23598633 199.55508789 9.83447266 200.14892578 C10.75172119 201.03427002 10.75172119 201.03427002 11.6875 201.9375 C12.63568604 202.86925049 12.63568604 202.86925049 13.60302734 203.81982422 C17.27461095 207.40464037 21.02637348 210.85062479 24.9453125 214.1640625 C28.25384744 217.12035798 31.34159372 220.29879614 34.43798828 223.47509766 C37.13245492 226.21717295 39.89626452 228.80626991 42.8125 231.3125 C48.26167733 236.02614198 53.24087814 241.19379415 58.2890625 246.328125 C62.50690454 250.58944995 66.79133895 254.66904111 71.37109375 258.54101562 C73.53208987 260.47658409 75.18969936 262.7371242 77 265 C78.91719652 266.74879413 80.88581629 268.42844687 82.859375 270.11328125 C84.9989414 271.99906696 87.00146666 273.96605958 89 276 C91.58009215 278.62040609 94.21103607 281.10323412 97 283.5 C100.51001511 286.51641923 103.75051276 289.73095132 106.99609375 293.02734375 C109.58246151 295.57337829 112.3153528 297.92021557 115.06640625 300.28515625 C116.95494597 301.96004299 118.73155648 303.69947587 120.5 305.5 C123.44264324 308.48893201 126.52355707 311.24652298 129.69921875 313.984375 C133.04467255 316.91519701 136.30532027 319.93721628 139.57470703 322.95214844 C142.36378407 325.51841636 145.18082447 328.03844555 148.0625 330.5 C168.81437437 348.71696632 181.19834405 370.23446546 184 398 C184.08333053 400.43290402 184.1220876 402.86767194 184.12025452 405.30200195 C184.12153615 406.33518492 184.12153615 406.33518492 184.12284368 407.38924026 C184.12447659 409.67228131 184.11901339 411.9552471 184.11352539 414.23828125 C184.11324302 415.88476052 184.11340223 417.53123992 184.1139679 419.17771912 C184.11425392 423.62959386 184.10838871 428.08144148 184.10139394 432.53330994 C184.09512793 437.19245261 184.09455403 441.85159595 184.09336853 446.51074219 C184.09026478 455.325516 184.08206429 464.14027736 184.07201904 472.9550457 C184.06082819 482.9937326 184.05533997 493.0324201 184.05032361 503.07111168 C184.03988087 523.71408139 184.02229996 544.35703991 184 565 C180.99322169 563.55868832 178.90122519 562.14309187 176.55175781 559.76293945 C175.8971759 559.10497879 175.24259399 558.44701813 174.56817627 557.76911926 C173.87020935 557.05769272 173.17224243 556.34626617 172.453125 555.61328125 C171.72309265 554.87804733 170.9930603 554.14281342 170.24090576 553.38529968 C167.90580512 551.0323975 165.57747553 548.67294328 163.25 546.3125 C160.93600133 543.97073528 158.6205138 541.63049486 156.30194092 539.29325867 C154.86097625 537.84020192 153.42269026 536.38448192 151.98760986 534.9256134 C147.5013207 530.3954094 142.84305364 526.1448547 138 522 C130.25393336 515.17798549 122.64244948 508.25974762 115.91455078 500.41455078 C111.82064775 495.72726698 107.4712471 491.32717439 103.06640625 486.93359375 C102.22963852 486.09586929 101.39287079 485.25814484 100.53074646 484.39503479 C98.77131896 482.63493065 97.01064347 480.87607323 95.2487793 479.1184082 C92.57030589 476.44529028 89.89721127 473.76687749 87.22460938 471.08789062 C85.50552885 469.36947097 83.78613811 467.65136158 82.06640625 465.93359375 C81.27657852 465.14174179 80.48675079 464.34988983 79.67298889 463.53404236 C76.24232947 460.11765674 72.79781242 456.77636819 69.12084961 453.62524414 C64.35145647 449.51443647 59.93984564 445.05259968 55.50927734 440.58444214 C53.9630726 439.02526273 52.41358104 437.46941379 50.86328125 435.91430664 C47.01655775 432.05434197 43.17535284 428.18890098 39.33398438 424.3236084 C36.07574304 421.04550558 32.8153701 417.76955008 29.55224609 414.49630737 C28.03923948 412.97690534 26.5293203 411.45448297 25.01953125 409.93188477 C20.46407372 405.35244786 15.84984266 400.92089583 10.94433594 396.71725464 C7.17508152 393.38821591 3.6676952 389.78915864 0.125 386.22265625 C-1.08990112 385.00563271 -1.08990112 385.00563271 -2.3293457 383.76402283 C-4.88861015 381.19920861 -7.4443553 378.63092052 -10 376.0625 C-11.74586133 374.31161717 -13.49195287 372.56096387 -15.23828125 370.81054688 C-19.49485198 366.54301384 -23.74854716 362.27263134 -28 358 C-31.7357338 361.17454145 -35.45192346 364.34965797 -39.0078125 367.7265625 C-39.68457031 368.3659375 -40.36132812 369.0053125 -41.05859375 369.6640625 C-42.44420953 370.97895687 -43.82962394 372.29406348 -45.21484375 373.609375 C-47.93138686 376.17528761 -50.58838254 378.68404899 -53.5546875 380.9609375 C-55.64131723 382.7009067 -57.18009414 384.32160252 -58.91674805 386.38305664 C-63.92835372 392.16057011 -69.36691144 397.51113344 -74.77734375 402.91015625 C-75.91417246 404.04766033 -77.05085283 405.18531267 -78.18739319 406.32310486 C-80.55844921 408.69562686 -82.93128273 411.06635241 -85.30541992 413.43579102 C-88.32898461 416.45365912 -91.34803633 419.47599576 -94.36575985 422.49970341 C-96.70869833 424.84627732 -99.0540404 427.19043735 -101.40008736 429.53390312 C-102.51344484 430.64659957 -103.62607681 431.7600225 -104.73792839 432.87422371 C-110.1665518 438.31180306 -115.59730229 443.69314303 -121.46348572 448.66574097 C-123.37114068 450.3222865 -125.01488586 452.11797754 -126.625 454.0625 C-129.60650926 457.56253261 -132.6310718 460.8661133 -136 464 C-136.66 464 -137.32 464 -138 464 C-138.06865208 422.58869208 -138.12152165 381.17739073 -138.15319599 339.76603719 C-138.15694815 334.87812301 -138.16083111 329.99020894 -138.16479492 325.10229492 C-138.16558185 324.12919068 -138.16636878 323.15608644 -138.16717956 322.15349419 C-138.18023692 306.39281423 -138.20389259 290.63216706 -138.23145839 274.87150656 C-138.25950338 258.70212737 -138.27617434 242.53276537 -138.28226548 226.36336285 C-138.2863838 216.38430201 -138.29939577 206.40533386 -138.3237494 196.42630155 C-138.33959539 189.58524328 -138.34440293 182.744233 -138.34050413 175.9031577 C-138.33858082 171.9549824 -138.34154929 168.00696919 -138.35761642 164.05882263 C-138.37222267 160.44326062 -138.37294779 156.82796961 -138.36269668 153.21239508 C-138.36083035 151.2869151 -138.37376264 149.36143827 -138.38724393 147.43600458 C-138.34709231 139.70887698 -137.97727601 134.28426191 -132.61328125 128.3671875 C-131.31970703 127.19542969 -131.31970703 127.19542969 -130 126 C-129.20980469 125.19820313 -128.41960937 124.39640625 -127.60546875 123.5703125 C-126.80753906 122.76335937 -126.00960938 121.95640625 -125.1875 121.125 C-124.39730469 120.32320313 -123.60710937 119.52140625 -122.79296875 118.6953125 C-120.69072025 116.66656919 -118.57920911 114.76300553 -116.36328125 112.8671875 C-110.97037073 108.18999298 -106.00829854 103.07979702 -101 98 C-99.1072613 96.08024056 -97.21093242 94.16412746 -95.3125 92.25 C-94.48363281 91.40953125 -93.65476562 90.5690625 -92.80078125 89.703125 C-90.70320547 87.67868645 -88.59809898 85.77886319 -86.38720703 83.88720703 C-81.38446403 79.54568798 -76.7398971 74.85269015 -72.07775497 70.15291977 C-70.45647628 68.51869104 -68.83193108 66.88777034 -67.20657349 65.25759888 C-63.75986821 61.79956118 -60.31714048 58.33758075 -56.875 54.875 C-52.87481383 50.85111274 -48.87295971 46.82891317 -44.86685562 42.8109169 C-43.27510954 41.2127425 -41.68643132 39.61156234 -40.09786987 38.01022339 C-39.11341061 37.02212865 -38.12880902 36.0341757 -37.14404297 35.04638672 C-36.29325165 34.19035858 -35.44246033 33.33433044 -34.56588745 32.45236206 C-31.80994168 29.81835064 -28.93786715 27.42786743 -26 25 C-24.88092608 23.78189299 -23.79266227 22.5341209 -22.75 21.25 C-18.57963703 16.36156129 -13.83818024 12.21268342 -9 8 C-8.21367187 7.31035156 -7.42734375 6.62070313 -6.6171875 5.91015625 C-5.2457738 4.70832596 -3.87235935 3.50877111 -2.49609375 2.3125 C-1.64347059 1.56450684 -0.80201622 0.80201622 0 0 Z " fill="#000000" transform="translate(489,209)"/>
<path d="M0 0 C0.09349485 23.83514475 0.16400452 47.67026197 0.20724869 71.50555325 C0.22786256 82.57301913 0.25596079 93.64037098 0.30175781 104.70776367 C0.34166144 114.3555565 0.36744136 124.00326674 0.37635398 133.6511398 C0.38156273 138.75832378 0.39378087 143.86527151 0.42292023 148.97237968 C0.45014495 153.78306256 0.45843072 158.59341267 0.45243073 163.40416527 C0.45352781 165.16615357 0.46143956 166.92815342 0.4768219 168.69007492 C0.59105343 182.4537835 -1.22059561 190.95552155 -11 201 C-11.84252319 201.87010712 -12.68504639 202.74021423 -13.55310059 203.63668823 C-16.56894299 206.72818233 -19.6190404 209.78494353 -22.671875 212.83984375 C-23.80144108 213.97263241 -24.93093595 215.10549207 -26.06036377 216.23841858 C-28.41868381 218.60269358 -30.77902788 220.96492634 -33.140625 223.32592773 C-36.13874248 226.32394378 -39.12992516 229.32877573 -42.11936569 232.33544064 C-44.44789156 234.675186 -46.78105101 237.01026993 -49.11545563 239.34414864 C-50.21885799 240.44871629 -51.32067444 241.55487094 -52.42073822 242.6627636 C-58.55777926 248.83938372 -64.75495062 254.64367403 -71.61116028 260.02796936 C-76.1625374 263.78521396 -79.95085141 268.25616041 -83.85351562 272.6640625 C-84.46775391 273.34210938 -85.08199219 274.02015625 -85.71484375 274.71875 C-86.25230225 275.32654297 -86.78976074 275.93433594 -87.34350586 276.56054688 C-89.28988998 278.25190734 -90.44988068 278.69243669 -93 279 C-95.43210508 277.0034383 -97.51084463 275.04473841 -99.671875 272.78125 C-100.31312317 272.13055542 -100.95437134 271.47986084 -101.61505127 270.80944824 C-103.67209869 268.71773253 -105.71143685 266.60972054 -107.75 264.5 C-109.777499 262.4222484 -111.8085481 260.34807034 -113.84210205 258.27624512 C-115.10642715 256.98590477 -116.36676375 255.69163894 -117.62225342 254.3927002 C-121.30453775 250.60872322 -125.11763612 247.06659314 -129.13397217 243.63842773 C-132.41691825 240.75590379 -135.44278052 237.61788493 -138.5 234.5 C-142.88514916 230.06744382 -147.27811904 225.75671699 -152.046875 221.734375 C-155.14550592 218.98279075 -158.01689295 216.00342359 -160.92578125 213.0546875 C-164.20862734 209.74440816 -167.61623774 206.65517001 -171.1484375 203.6171875 C-181.48984717 194.58481703 -181.48984717 194.58481703 -182.26586914 187.6105957 C-181.91663061 184.18138766 -180.77970207 183.2132209 -178.30859375 180.85546875 C-177.52806641 180.09556641 -176.74753906 179.33566406 -175.94335938 178.55273438 C-175.11642578 177.77220703 -174.28949219 176.99167969 -173.4375 176.1875 C-171.82962846 174.6418185 -170.22413171 173.09366262 -168.62109375 171.54296875 C-167.83025391 170.77863525 -167.03941406 170.01430176 -166.22460938 169.22680664 C-164.23757504 167.23780969 -162.38442809 165.20629078 -160.55859375 163.0703125 C-155.39230605 157.03087051 -149.59663364 151.58848241 -143.9140625 146.04101562 C-139.57857004 141.75908666 -135.47686142 137.46321119 -131.6875 132.6875 C-126.10605933 125.70729962 -119.74401485 119.56283217 -113.375 113.3125 C-111.00436721 110.97872805 -108.63705818 108.64165481 -106.2734375 106.30078125 C-105.70796204 105.74089508 -105.14248657 105.18100891 -104.55987549 104.60415649 C-101.1467051 101.20349112 -97.92736211 97.70480728 -94.80712891 94.03198242 C-90.13154646 88.77463674 -84.97724611 83.93063125 -79.97021484 78.99072266 C-78.4675623 77.50640103 -76.96811835 76.01888796 -75.46875 74.53125 C-74.58638672 73.66048828 -73.70402344 72.78972656 -72.79492188 71.89257812 C-70.66323897 69.73631408 -68.66917328 67.4896884 -66.68920898 65.19360352 C-62.81482422 60.72629666 -58.68956346 56.54542535 -54.50390625 52.37109375 C-53.71153061 51.57776138 -52.91915497 50.78442902 -52.10276794 49.96705627 C-50.43749717 48.30110919 -48.77097971 46.63640744 -47.10327148 44.97290039 C-44.56965378 42.44463866 -42.04141833 39.91108339 -39.51367188 37.37695312 C-37.88573717 35.7496793 -36.25749225 34.12271575 -34.62890625 32.49609375 C-33.88282608 31.74798935 -33.13674591 30.99988495 -32.36805725 30.22911072 C-28.28981854 26.168787 -24.11519531 22.29226567 -19.75691223 18.53453064 C-17.59015147 16.64202815 -15.55138628 14.64911709 -13.53515625 12.59765625 C-12.79845703 11.85322266 -12.06175781 11.10878906 -11.30273438 10.34179688 C-10.56345703 9.58962891 -9.82417969 8.83746094 -9.0625 8.0625 C-7.55565907 6.53031272 -6.04666913 5.00023481 -4.53515625 3.47265625 C-3.879104 2.80500244 -3.22305176 2.13734863 -2.54711914 1.44946289 C-1 0 -1 0 0 0 Z " fill="#000000" transform="translate(675,207)"/>
<path d="M0 0 C0.66 0 1.32 0 2 0 C3.42993164 1.46875 3.42993164 1.46875 5.09765625 3.5 C8.92780204 8.00302264 13.09475319 11.99732427 17.4375 16 C22.45858364 20.65302231 27.40393527 25.34932445 32.203125 30.23217773 C33.92862654 31.92978054 35.70973115 33.50600116 37.5625 35.0625 C43.82033607 40.43526364 49.51282036 46.435319 55.31005859 52.29394531 C57.53216407 54.53723815 59.76514371 56.76941686 62 59 C61.01 59.66 60.02 60.32 59 61 C58.37544922 60.3702124 57.75089844 59.7404248 57.10742188 59.09155273 C54.75371686 56.72064355 52.39765427 54.352126 50.04003906 51.98510742 C49.02673848 50.96682708 48.01434288 49.94764526 47.00292969 48.92749023 C41.73428458 43.61450505 36.44258614 38.39844451 30.75195312 33.53149414 C28.03166273 31.15351454 25.52073677 28.58583225 23 26 C19.1400201 22.08679569 15.21326698 18.36302024 11.0234375 14.80078125 C6.82722894 11.06631765 2.93415488 7.00671101 -1 3 C-0.67 2.01 -0.34 1.02 0 0 Z " fill="#F5F5F5" transform="translate(493,400)"/>
<path d="M0 0 C3.91402949 1.26941497 5.79072873 2.51167694 8 6 C7.01 6.66 6.02 7.32 5 8 C2.5 5.6875 2.5 5.6875 0 3 C0 2.01 0 1.02 0 0 Z " fill="#E8E9E8" transform="translate(547,453)"/>
</svg>
