<?xml version="1.0" encoding="UTF-8"?>
<svg version="1.1" xmlns="http://www.w3.org/2000/svg" width="2026" height="2026">
<path d="M0 0 C668.58 0 1337.16 0 2026 0 C2026 668.58 2026 1337.16 2026 2026 C1357.42 2026 688.84 2026 0 2026 C0 1357.42 0 688.84 0 0 Z " fill="#24704F" transform="translate(0,0)"/>
<path d="M0 0 C4.7552558 0.02278747 9.50961479 0.00920924 14.26484013 -0.01378536 C39.5953127 -0.11698805 64.4728008 1.33452491 89.62978935 4.27859306 C91.65007595 4.51482461 93.67081202 4.74668962 95.69178772 4.97694397 C107.80995208 6.36130927 119.73451224 8.18556402 131.70703125 10.52148438 C132.51395416 10.6786795 133.32087708 10.83587463 134.1522522 10.99783325 C155.97611298 15.26360982 177.72906472 19.56087003 199.09814453 25.77099609 C201.87599369 26.57008914 204.66268543 27.33010607 207.453125 28.08398438 C214.60381875 30.02617935 221.65511173 32.25190108 228.70703125 34.52148438 C229.66673828 34.82828125 230.62644531 35.13507813 231.61523438 35.45117188 C292.61841776 55.03900176 351.98195524 82.91099295 404.70703125 119.52148438 C405.4635498 120.04274902 406.22006836 120.56401367 406.99951172 121.10107422 C418.43223734 128.9842407 429.6955461 137.05914209 440.70703125 145.52148438 C441.31240723 145.98651367 441.9177832 146.45154297 442.54150391 146.93066406 C450.56289134 153.11494388 458.37414119 159.51622167 466.05957031 166.11230469 C467.73511915 167.54550977 469.41930099 168.96798175 471.10546875 170.38867188 C484.94373322 182.08127187 497.88580369 194.60827304 510.70703125 207.39648438 C511.29761322 207.98438751 511.88819519 208.57229065 512.49667358 209.17800903 C518.79133992 215.45101527 524.94107045 221.75292146 530.70703125 228.52148438 C532.34761425 230.31795988 533.99288341 232.11017639 535.64453125 233.89648438 C539.41476398 238.03468276 542.98938282 242.25982978 546.4453125 246.66210938 C548.21481482 248.8992004 550.00332844 251.11361857 551.8125 253.31835938 C557.24225752 259.9359504 562.61693335 266.54841342 567.578125 273.52929688 C569.21702198 275.83277409 570.87579275 278.11460756 572.5546875 280.38867188 C608.9885133 329.92217322 638.94714676 385.21762766 658.70703125 443.52148438 C658.99255859 444.34841797 659.27808594 445.17535156 659.57226562 446.02734375 C666.1793562 465.17852516 672.1637464 484.51324653 676.36035156 504.34814453 C677.31950761 508.87565112 678.44960977 513.31467772 679.70703125 517.77148438 C682.16918588 526.77676647 683.72173359 535.93698266 685.29736328 545.13232422 C685.62281018 547.03031192 685.9581242 548.92660719 686.296875 550.82226562 C692.22820354 584.69456331 693.97140489 618.50495156 694.01953125 652.83398438 C694.02068184 653.55056969 694.02183243 654.267155 694.02301788 655.00545502 C694.0484982 677.92887029 693.33124665 700.49496027 690.03961182 723.21466064 C689.68697319 725.66060978 689.34728635 728.10814063 689.00927734 730.55615234 C686.51768384 748.47925516 683.75109908 766.28271305 679.35888672 783.8515625 C678.62596394 786.85352636 677.94649423 789.8649178 677.2734375 792.88085938 C671.95296116 816.68702742 664.93387932 839.55850149 656.70703125 862.52148438 C656.28824707 863.69743164 655.86946289 864.87337891 655.43798828 866.08496094 C634.38575684 924.75672122 603.63928478 980.09880368 565.70703125 1029.52148438 C564.8890658 1030.59680968 564.07136801 1031.67233862 563.25390625 1032.74804688 C551.4349807 1048.25782672 538.83131693 1063.10446258 525.70703125 1077.52148438 C524.92295898 1078.39039307 524.13888672 1079.25930176 523.33105469 1080.15454102 C516.80666893 1087.34335597 510.08551661 1094.29934845 503.20825195 1101.15063477 C501.50679347 1102.84668164 499.81081862 1104.54808258 498.11523438 1106.25 C492.4799397 1111.88872992 486.78566284 1117.35687796 480.70703125 1122.52148438 C479.09934752 1123.97593955 477.4946341 1125.43369332 475.89453125 1126.89648438 C471.16371968 1131.16067569 466.28792306 1135.20994919 461.33056641 1139.20703125 C459.50574004 1140.68445458 457.69009822 1142.17275206 455.875 1143.66210938 C447.95991837 1150.14707534 439.97404638 1156.48739121 431.70703125 1162.52148438 C431.03945801 1163.01116699 430.37188477 1163.50084961 429.68408203 1164.00537109 C419.52835762 1171.44626608 409.25379589 1178.64659973 398.70703125 1185.52148438 C397.60488281 1186.2459375 396.50273438 1186.97039062 395.3671875 1187.71679688 C372.3755251 1202.68686411 348.49970091 1216.74726594 323.70703125 1228.52148438 C322.08837158 1229.29492188 322.08837158 1229.29492188 320.43701172 1230.08398438 C295.3664985 1242.04658263 269.90192523 1252.0223365 243.74986267 1261.35458374 C239.77868014 1262.77262135 235.82167788 1264.22256491 231.87109375 1265.69726562 C226.21198379 1267.75892489 220.45283722 1269.37580975 214.64453125 1270.95898438 C212.43748209 1271.56699229 210.23045095 1272.17506561 208.0234375 1272.78320312 C206.94980957 1273.07759277 205.87618164 1273.37198242 204.77001953 1273.67529297 C202.04520733 1274.42805872 199.32616522 1275.19739081 196.609375 1275.97851562 C188.5901218 1278.27565346 180.64659867 1280.26804182 172.4296875 1281.74804688 C169.39469411 1282.37861213 166.4766307 1283.12184758 163.49609375 1283.95898438 C157.71756079 1285.56164551 151.90976214 1286.78214139 146.01953125 1287.89648438 C144.34564331 1288.2134729 144.34564331 1288.2134729 142.63793945 1288.53686523 C116.1401886 1293.46884184 89.54669712 1297.08343672 62.70703125 1299.52148438 C61.80098145 1299.60843063 60.89493164 1299.69537689 59.96142578 1299.78495789 C50.27925359 1300.63411463 40.62957653 1300.72157676 30.91796875 1300.75976562 C29.57660795 1300.76587892 29.57660795 1300.76587892 28.20814896 1300.77211571 C23.44475805 1300.79288693 18.68139491 1300.80720883 13.91796875 1300.81665039 C10.08088615 1300.82537158 6.24418229 1300.84592075 2.40722656 1300.87817383 C-18.63901132 1301.05091293 -39.47685441 1300.68171061 -60.44140625 1298.68945312 C-61.31210377 1298.60717279 -62.18280128 1298.52489246 -63.07988358 1298.44011879 C-73.75584201 1297.40704126 -84.33214084 1295.98368078 -94.91299438 1294.22969055 C-99.50749068 1293.47097688 -104.11655289 1292.83658057 -108.73046875 1292.20898438 C-121.71782714 1290.33384136 -134.49372745 1287.37827651 -147.29296875 1284.52148438 C-149.29684492 1284.07994161 -151.30074942 1283.63852736 -153.3046875 1283.19726562 C-169.30870229 1279.64575055 -185.10108277 1275.48616241 -200.85546875 1270.95898438 C-201.84272949 1270.67812988 -202.82999023 1270.39727539 -203.84716797 1270.10791016 C-209.38284016 1268.49673278 -214.68077892 1266.6105 -220.00854492 1264.41186523 C-224.28334311 1262.74571273 -228.73788184 1261.80567915 -233.19140625 1260.74414062 C-237.57110679 1259.55083412 -241.67018615 1257.76952929 -245.83984375 1255.9909668 C-249.66984184 1254.36110548 -253.51988315 1252.78600573 -257.375 1251.21679688 C-258.81715828 1250.62720008 -260.25921427 1250.03735304 -261.70117188 1249.44726562 C-263.89808569 1248.54840623 -266.09538926 1247.65058363 -268.29418945 1246.75634766 C-278.43996963 1242.62805685 -288.40152847 1238.22519962 -298.29296875 1233.52148438 C-299.82044378 1232.8132247 -301.34887204 1232.10701094 -302.87890625 1231.40429688 C-315.57085533 1225.5335216 -328.02083872 1219.24584861 -339.9296875 1211.90039062 C-342.53509157 1210.38021271 -345.19936782 1209.07801414 -347.91796875 1207.77148438 C-359.18568819 1202.23140209 -369.58894063 1195.06314472 -379.99047852 1188.06591797 C-383.63770006 1185.61311666 -387.31613451 1183.22773813 -391.04296875 1180.89648438 C-397.61075886 1176.7499542 -403.92094194 1172.23483539 -409.97265625 1167.36523438 C-412.2062082 1165.50028146 -412.2062082 1165.50028146 -414.54296875 1164.20898438 C-418.71780683 1161.64715192 -422.46389058 1158.56874112 -426.29296875 1155.52148438 C-427.03289062 1154.93496094 -427.7728125 1154.3484375 -428.53515625 1153.74414062 C-431.12851949 1151.67905508 -433.71068639 1149.6004113 -436.29296875 1147.52148438 C-436.89061035 1147.04404785 -437.48825195 1146.56661133 -438.10400391 1146.07470703 C-446.21022312 1139.59741145 -454.11491973 1133.01057037 -461.703125 1125.93164062 C-463.8461746 1123.93727924 -466.01443866 1121.99594381 -468.23046875 1120.08398438 C-481.01295719 1108.96190165 -493.71227817 1097.32072862 -504.6640625 1084.36523438 C-506.57103605 1082.20674153 -508.60509736 1080.21878017 -510.66796875 1078.20898438 C-514.71605406 1074.20868422 -518.29638297 1069.9686341 -521.8515625 1065.52929688 C-524.55770941 1062.19532389 -527.35533222 1058.95288286 -530.16796875 1055.70898438 C-536.10820654 1048.82086631 -541.76197673 1041.74104774 -547.29296875 1034.52148438 C-547.7617041 1033.91111328 -548.23043945 1033.30074219 -548.71337891 1032.671875 C-561.81503739 1015.55769505 -574.01892474 997.89023876 -585.29296875 979.52148438 C-586.02314209 978.3393335 -586.02314209 978.3393335 -586.76806641 977.13330078 C-604.83400258 947.81707816 -620.89747919 916.98077845 -633.37939453 884.85693359 C-634.30857286 882.48159422 -635.27107691 880.12144588 -636.234375 877.75976562 C-650.37569746 842.42531458 -660.91363233 805.11903797 -667.86355591 767.71476746 C-668.2835709 765.56948512 -668.76042893 763.44499195 -669.25244141 761.31518555 C-670.26147849 756.79679425 -671.03897065 752.2699118 -671.73046875 747.69335938 C-671.85557327 746.873853 -671.9806778 746.05434662 -672.10957336 745.21000671 C-672.50972224 742.56464646 -672.90252645 739.91829388 -673.29296875 737.27148438 C-673.49422867 735.91520432 -673.49422867 735.91520432 -673.69955444 734.53152466 C-675.90891523 719.5159958 -677.41973748 704.61100779 -678.09106445 689.44116211 C-678.24139311 687.26730424 -678.49455723 685.10008681 -678.80053711 682.94262695 C-679.52344226 677.3435814 -679.47428418 671.73730712 -679.49609375 666.09960938 C-679.50306274 664.89848007 -679.51003174 663.69735077 -679.51721191 662.45982361 C-679.53464077 658.56367505 -679.54094115 654.6676704 -679.54296875 650.77148438 C-679.54355789 650.10824284 -679.54414703 649.4450013 -679.54475403 648.76166153 C-679.55849882 626.87031389 -678.87291569 605.26830989 -676.29296875 583.52148438 C-676.14114498 582.19243489 -675.98978002 580.86333292 -675.83886719 579.53417969 C-673.86436641 562.34213097 -671.00196465 545.41992412 -667.29296875 528.52148438 C-667.01517578 527.24998535 -666.73738281 525.97848633 -666.45117188 524.66845703 C-665.55427176 520.57555417 -664.64511116 516.4854558 -663.73046875 512.39648438 C-663.44969482 511.14037354 -663.1689209 509.8842627 -662.87963867 508.59008789 C-659.93281775 495.61397635 -656.44163748 482.79791246 -652.73046875 470.02148438 C-652.29444336 468.49394531 -652.29444336 468.49394531 -651.84960938 466.93554688 C-650.3013675 461.60155919 -648.5444137 456.5935598 -646.29296875 451.52148438 C-645.69986156 449.65594019 -645.1374223 447.78037839 -644.60546875 445.89648438 C-639.34321616 428.52709425 -631.99398776 411.94086141 -624.57861328 395.40576172 C-623.42258031 392.81226124 -622.28737961 390.21131218 -621.1640625 387.60351562 C-616.41060863 376.60804497 -611.01325691 366.04328083 -605.29296875 355.52148438 C-604.89883789 354.78994141 -604.50470703 354.05839844 -604.09863281 353.3046875 C-594.70755182 335.89873721 -584.57742119 318.77190336 -573.29296875 302.52148438 C-572.78266113 301.78333496 -572.27235352 301.04518555 -571.74658203 300.28466797 C-564.78217658 290.22016893 -557.75946776 280.2219359 -550.29296875 270.52148438 C-549.39191406 269.34779297 -549.39191406 269.34779297 -548.47265625 268.15039062 C-546.75753355 265.9314987 -545.02909452 263.7239735 -543.29296875 261.52148438 C-542.69097656 260.75578125 -542.08898437 259.99007813 -541.46875 259.20117188 C-533.70247155 249.40274349 -525.59556473 239.8690295 -517.29296875 230.52148438 C-516.67808594 229.82539062 -516.06320312 229.12929688 -515.4296875 228.41210938 C-503.02763141 214.49191082 -490.40167035 200.34763066 -476.2109375 188.22460938 C-474.20582968 186.4441063 -472.34772996 184.57055881 -470.48046875 182.64648438 C-466.59308824 178.69824468 -462.38822899 175.26382284 -458.0703125 171.79882812 C-455.45772622 169.65658087 -452.96487859 167.43507866 -450.48046875 165.14648438 C-444.90639222 160.0751331 -439.00621553 155.47131462 -433.04248047 150.87255859 C-431.40351709 149.60685621 -429.77115522 148.33317754 -428.140625 147.05664062 C-374.32849805 105.18768434 -313.1545036 68.79410893 -248.43676758 46.64770508 C-245.53809685 45.60929799 -242.7381069 44.45679026 -239.9140625 43.23242188 C-232.4928856 40.12455849 -224.93593776 37.51737336 -217.29296875 35.02148438 C-216.51840332 34.76847565 -215.74383789 34.51546692 -214.94580078 34.25479126 C-179.8538326 22.89370487 -143.65986452 14.58947727 -107.29296875 8.52148438 C-106.13361816 8.32264648 -104.97426758 8.12380859 -103.77978516 7.91894531 C-69.38310967 2.08556133 -34.85258366 -0.16848808 0 0 Z " fill="#F0F1F2" transform="translate(1018.29296875,360.478515625)"/>
<path d="M0 0 C0.66 0 1.32 0 2 0 C2.495 167.805 2.495 167.805 3 339 C36.76182173 306.21272468 36.76182173 306.21272468 69 272 C70.39788618 270.52782972 71.81144735 269.07015616 73.24938965 267.63708496 C74.0145842 266.87196091 74.77977875 266.10683685 75.56816101 265.31852722 C76.38291397 264.50894058 77.19766693 263.69935394 78.03710938 262.86523438 C78.91446243 261.98934158 79.79181549 261.11344879 80.695755 260.21101379 C82.58905792 258.32149775 84.4832297 256.43290552 86.37898254 254.54585266 C89.38350523 251.55497515 92.38410018 248.5601772 95.38415527 245.56481934 C102.29346452 238.66749731 109.20780196 231.77522318 116.12220001 224.88300323 C122.46490768 218.5605353 128.80651835 212.23697701 135.14407396 205.9093442 C138.11957277 202.93879325 141.0974837 199.9706893 144.07733917 197.00450897 C146.37452811 194.71660383 148.66843048 192.42540687 150.96289062 190.13476562 C151.77764359 189.32517899 152.59239655 188.51559235 153.43183899 187.68147278 C157.52947428 183.58421499 161.43349512 179.40104691 165.2143631 175.01148224 C168.59826337 171.19959009 172.23878219 167.64010218 175.85351562 164.04882812 C176.71136154 163.19244247 177.56920746 162.33605682 178.45304871 161.45372009 C180.78393779 159.12759938 183.11700368 156.80368839 185.45092583 154.4806118 C187.90678436 152.03481476 190.35933813 149.58570883 192.81213379 147.13684082 C199.56663159 140.39432826 206.3261584 133.65686488 213.08574677 126.91945648 C219.28662859 120.73881664 225.48641189 114.55708509 231.68213987 108.37127829 C234.11701463 105.94054447 236.55294484 103.51088859 238.9914093 101.08375549 C241.71203025 98.37515248 244.42955464 95.66347672 247.14648438 92.95117188 C247.94253586 92.16028671 248.73858734 91.36940155 249.5587616 90.55455017 C253.63481824 86.47887749 257.51872215 82.31362424 261.28043747 77.94736481 C264.26867246 74.56325777 267.46751063 71.39350414 270.66357422 68.20703125 C271.75997475 67.10800224 271.75997475 67.10800224 272.87852478 65.98677063 C275.26808894 63.59284455 277.6612448 61.20254783 280.0546875 58.8125 C281.7239519 57.14256145 283.39306787 55.47247451 285.06204224 53.80224609 C288.54527322 50.31754626 292.03029327 46.83464837 295.51660156 43.35302734 C299.99593112 38.8794257 304.47071482 34.40130799 308.9441967 29.92185974 C312.38232438 26.4801309 315.82281483 23.04077199 319.2640419 19.60214233 C320.91628652 17.95056662 322.56778361 16.29824274 324.21853256 14.64517212 C326.51421684 12.3469653 328.81305239 10.05195929 331.11279297 7.7578125 C331.79950577 7.06907547 332.48621857 6.38033844 333.19374084 5.67073059 C333.81606094 5.05123032 334.43838104 4.43173004 335.07955933 3.79345703 C335.62262159 3.25077179 336.16568386 2.70808655 336.72520256 2.1489563 C338 1 338 1 339 1 C339.0102052 10.08742098 339.01911884 19.1748423 339.02708334 28.2622655 C339.03216324 33.86782607 339.03889714 39.47338225 339.0465889 45.0789398 C339.07456437 66.14865689 339.0673335 87.21744305 338.97259152 108.28699338 C338.92893897 118.29025799 338.89710577 128.2935614 338.8671875 138.296875 C338.86173452 139.98109948 338.86173452 139.98109948 338.85617137 141.69934869 C338.75910928 172.9082758 339.19875439 204.04671569 340.26575309 235.23717934 C340.7164778 248.65971047 340.99031992 262.08658448 341.24970531 275.51399899 C341.44756627 285.31544372 341.74273745 295.095629 342.27493286 304.88504028 C345.78693951 370.62012088 345.78693951 370.62012088 324.97432435 394.04254234 C315.15276697 404.72884776 304.00498762 414.02316462 292.4178009 422.72233582 C288.30060434 425.85385412 284.9111531 429.05989298 281.63006115 433.04645252 C278.69844581 436.55984817 275.40150662 439.7203363 272.15625 442.94140625 C271.40569336 443.69050262 270.65513672 444.439599 269.88183594 445.21139526 C268.26519752 446.82425243 266.64740575 448.43595424 265.02856445 450.04660034 C262.46129622 452.60100992 259.89724802 455.15861337 257.33398438 457.71704102 C250.96971647 464.06799685 244.60000415 470.41348317 238.23046875 476.75915527 C232.8386057 482.13123735 227.44882867 487.50539616 222.06176758 492.8822937 C219.54518477 495.39243095 217.025591 497.89951836 214.50585938 500.40649414 C212.95167379 501.95704455 211.39762992 503.50773702 209.84375 505.05859375 C209.15055664 505.74662079 208.45736328 506.43464783 207.74316406 507.14352417 C203.81665504 511.06961111 200.07843961 515.10391654 196.45860195 519.31499481 C194.79594167 521.23573213 193.05863491 523.05620924 191.25390625 524.84375 C190.64482422 525.44960938 190.03574219 526.05546875 189.40820312 526.6796875 C188.49458008 527.58074219 188.49458008 527.58074219 187.5625 528.5 C186.92634766 529.13164063 186.29019531 529.76328125 185.63476562 530.4140625 C184.09217194 531.94505774 182.54642686 533.47287667 181 535 C182.52833569 539.21445561 185.61021745 541.23555377 189.11817932 543.75042725 C190.43748821 544.72161952 191.75618749 545.69364029 193.0743742 546.66635513 C193.78186947 547.18499524 194.48936475 547.70363534 195.21829927 548.23799181 C334.28520704 650.65901672 334.28520704 650.65901672 346.00570154 726.42016077 C350.08550349 755.86638865 349.59063138 785.63194237 348.1875 815.25 C348.12773357 816.54356981 348.06796715 817.83713963 348.00638962 819.16990852 C346.68610886 847.16775209 344.4777677 875.05812857 341.7508893 902.95089006 C341.57690906 904.7318694 341.57690906 904.7318694 341.39941406 906.54882812 C341.28420143 907.72742008 341.16898879 908.90601203 341.05028486 910.12031889 C338.81833698 933.2402132 338.18210316 956.17544618 338.4609375 979.390625 C338.47494154 980.64442317 338.47494154 980.64442317 338.48922849 981.92355061 C338.5795649 989.82127335 338.70462442 997.71794304 338.8662141 1005.61451936 C339.1294114 1018.55173021 339.10493146 1031.48337385 339.04919815 1044.4227829 C339.02770856 1049.75384781 339.02238341 1055.08491553 339.01586914 1060.41601562 C339.01096063 1063.2773446 339.00548533 1066.13867206 339 1069 C334.13788533 1064.94701613 329.55966855 1060.70218454 325.09474277 1056.2177906 C324.43326525 1055.55746692 323.77178772 1054.89714324 323.09026542 1054.21680975 C320.87986867 1052.00905463 318.67304949 1049.79775857 316.46620178 1047.5864563 C314.86407604 1045.98476676 313.2617305 1044.38329704 311.6591844 1042.78202808 C307.26034119 1038.38542018 302.86462096 1033.98570147 298.46940362 1029.58546925 C294.21469528 1025.32688636 289.95763272 1021.07065899 285.70062625 1016.81437371 C276.99477999 1008.10984001 268.29125938 999.40298445 259.58906746 990.69479752 C250.97433672 982.07414725 242.35857048 973.45453408 233.74142265 964.8362999 C233.20538763 964.30019613 232.6693526 963.76409236 232.11707409 963.21174303 C229.39475411 960.48908471 226.67241565 957.76644487 223.95007008 955.04381214 C204.67394079 935.76558313 185.40013039 916.4850373 166.12768555 897.203125 C147.40620447 878.47245775 128.68367197 859.74284249 109.9597168 841.01464844 C109.38243784 840.43723796 108.80515889 839.85982748 108.21038663 839.26491971 C102.41304766 833.4662622 96.61568732 827.66762605 90.81831133 821.86900555 C79.00866884 810.05682693 67.19916893 798.24450577 55.38975525 786.43209839 C54.84679207 785.88899792 54.30382888 785.34589744 53.74441227 784.78633938 C17.49388593 748.52661429 -18.75330629 712.26355629 -55 676 C-56.12363454 676.95843 -57.24660826 677.91763476 -58.3693018 678.87716687 C-58.99472844 679.41124097 -59.62015509 679.94531507 -60.26453406 680.49557323 C-62.1920022 682.16644133 -64.02755007 683.90175069 -65.83178711 685.70480347 C-66.50442596 686.3746225 -67.17706482 687.04444153 -67.87008667 687.73455811 C-68.93792892 688.80543671 -68.93792892 688.80543671 -70.02734375 689.89794922 C-70.79740753 690.66626068 -71.56747131 691.43457214 -72.36087036 692.22616577 C-74.88892339 694.74984157 -77.41332887 697.27712949 -79.9375 699.8046875 C-81.70419969 701.5707129 -83.47104774 703.33658988 -85.23803711 705.10232544 C-89.4070313 709.2696602 -93.57344743 713.43956031 -97.73894787 717.61038697 C-101.04937617 720.92456704 -104.36233491 724.2362018 -107.67675781 727.54638672 C-112.26479669 732.12861104 -116.85036236 736.71329427 -121.43386841 741.30005264 C-123.17455772 743.04140632 -124.91598266 744.78202497 -126.65817261 746.52187729 C-129.09877028 748.95991848 -131.53611073 751.40117171 -133.97265625 753.84326172 C-135.0404985 754.90806763 -135.0404985 754.90806763 -136.12991333 755.99438477 C-139.30548952 759.18327355 -142.38643542 762.40123951 -145.31619263 765.81817627 C-149.93164743 771.16121674 -154.9661533 776.08977622 -159.96826172 781.06591797 C-161.06147761 782.15721101 -162.15446333 783.24873466 -163.24723816 784.34046936 C-165.58548704 786.67557645 -167.92527518 789.00912584 -170.26629257 791.34145737 C-173.96644319 795.02801644 -177.66271439 798.71844896 -181.35842896 802.40945435 C-189.19431688 810.23428013 -197.0344511 818.05484498 -204.875 825.875 C-213.36142706 834.33939555 -221.84710906 842.80453041 -230.32794583 851.27452767 C-234.00426927 854.94586258 -237.68301827 858.6147445 -241.3636291 862.28178096 C-243.64543881 864.55615316 -245.92519439 866.83257566 -248.20438576 869.10957146 C-249.26415236 870.16746005 -250.32478597 871.22448089 -251.38633156 872.28058434 C-252.83079519 873.71787258 -254.27192481 875.15850921 -255.71286011 876.59933472 C-256.52139875 877.40565275 -257.3299374 878.21197079 -258.16297722 879.0427227 C-260.05496553 880.87158349 -260.05496553 880.87158349 -261 883 C-261.66 883 -262.32 883 -263 883 C-263.37680673 823.72527794 -263.72703378 764.45043146 -263.93154907 705.17483521 C-263.93458633 704.2967865 -263.93762358 703.41873779 -263.94075288 702.51408154 C-264.00660512 683.42924195 -264.06754793 664.34438963 -264.12343725 645.25951832 C-264.15087736 635.8995719 -264.17940172 626.53962892 -264.20849609 617.1796875 C-264.21281114 615.78258752 -264.21281114 615.78258752 -264.21721336 614.35726331 C-264.31087365 584.19692067 -264.47605344 554.03748801 -264.67853886 523.8776961 C-264.88633389 492.87054689 -265.02154339 461.86390074 -265.06612978 430.85606704 C-265.07246868 426.47106129 -265.07963268 422.08605724 -265.08729935 417.70105362 C-265.08878265 416.83806788 -265.09026596 415.97508213 -265.09179421 415.0859453 C-265.11773846 401.2238865 -265.21962494 387.36338853 -265.35030475 373.50196494 C-265.48022243 359.54796164 -265.52919895 345.59549702 -265.4970303 331.64091079 C-265.48182329 324.08631274 -265.50186567 316.53591165 -265.62252045 308.98215294 C-266.402622 258.2413631 -266.402622 258.2413631 -255.34559596 246.43706906 C-251.77675896 243.0293292 -247.88584987 240.23130943 -243.67352605 237.66698194 C-238.1672173 234.23371925 -233.46982206 229.60739802 -228.9140625 225.01171875 C-227.87258057 223.96528198 -227.87258057 223.96528198 -226.81005859 222.89770508 C-225.72845459 221.80365356 -225.72845459 221.80365356 -224.625 220.6875 C-223.85623535 219.91494873 -223.0874707 219.14239746 -222.29541016 218.34643555 C-219.86114235 215.90005818 -217.43015894 213.4504586 -215 211 C-211.79463822 207.76786312 -208.58585927 204.53917465 -205.375 201.3125 C-204.293396 200.21844849 -204.293396 200.21844849 -203.18994141 199.10229492 C-199.25498813 195.14862117 -195.21602914 191.40841829 -190.99194336 187.76708984 C-187.45864965 184.63263956 -184.16262784 181.26451764 -180.84375 177.90625 C-180.0971814 177.15589478 -179.35061279 176.40553955 -178.5814209 175.63244629 C-176.21847975 173.2574008 -173.8588263 170.87913183 -171.5 168.5 C-168.38839354 165.36160783 -165.27336245 162.22667255 -162.15625 159.09375 C-161.45705444 158.3862561 -160.75785889 157.67876221 -160.03747559 156.9498291 C-156.15628572 153.04962629 -152.16543464 149.36758332 -147.99963379 145.77478027 C-144.46435819 142.63703703 -141.16521757 139.26713811 -137.84375 135.90625 C-137.0971814 135.15589478 -136.35061279 134.40553955 -135.5814209 133.63244629 C-133.21847975 131.2574008 -130.8588263 128.87913183 -128.5 126.5 C-125.38839354 123.36160783 -122.27336245 120.22667255 -119.15625 117.09375 C-118.10745667 116.03250916 -118.10745667 116.03250916 -117.03747559 114.9498291 C-113.15628572 111.04962629 -109.16543464 107.36758332 -104.99963379 103.77478027 C-101.46435819 100.63703703 -98.16521757 97.26713811 -94.84375 93.90625 C-94.0971814 93.15589478 -93.35061279 92.40553955 -92.5814209 91.63244629 C-90.21847975 89.2574008 -87.8588263 86.87913183 -85.5 84.5 C-82.38839354 81.36160783 -79.27336245 78.22667255 -76.15625 75.09375 C-75.10745667 74.03250916 -75.10745667 74.03250916 -74.03747559 72.9498291 C-70.80125612 69.69775624 -67.53245848 66.54830705 -64.0546875 63.5546875 C-59.46866191 59.59915301 -55.2267983 55.33421396 -50.96875 51.03125 C-49.71572083 49.77254089 -49.71572083 49.77254089 -48.43737793 48.48840332 C-45.78912914 45.828031 -43.14415594 43.16443987 -40.5 40.5 C-37.01337399 36.98662727 -33.52335074 33.47668029 -30.03125 29.96875 C-29.24455933 29.17376099 -28.45786865 28.37877197 -27.64733887 27.55969238 C-23.48515279 23.37928132 -19.24794872 19.36407824 -14.76170349 15.53218079 C-11.90173383 13.04482092 -9.23117185 10.37677935 -6.5625 7.6875 C-6.03462891 7.16349609 -5.50675781 6.63949219 -4.96289062 6.09960938 C-2.13023087 3.31556864 -2.13023087 3.31556864 0 0 Z " fill="#98CA87" transform="translate(977,474)"/>
<path d="M0 0 C0.0102052 9.08742098 0.01911884 18.1748423 0.02708334 27.2622655 C0.03216324 32.86782607 0.03889714 38.47338225 0.0465889 44.0789398 C0.07456437 65.14865689 0.0673335 86.21744305 -0.02740848 107.28699338 C-0.07106103 117.29025799 -0.10289423 127.2935614 -0.1328125 137.296875 C-0.13644782 138.41969132 -0.14008315 139.54250763 -0.14382863 140.69934869 C-0.24089072 171.9082758 0.19875439 203.04671569 1.26575309 234.23717934 C1.7164778 247.65971047 1.99031992 261.08658448 2.24970531 274.51399899 C2.44756627 284.31544372 2.74273745 294.095629 3.27493286 303.88504028 C6.78693951 369.62012088 6.78693951 369.62012088 -14.02567565 393.04254234 C-23.84723303 403.72884776 -34.99501238 413.02316462 -46.5821991 421.72233582 C-50.69939566 424.85385412 -54.0888469 428.05989298 -57.36993885 432.04645252 C-60.30155419 435.55984817 -63.59849338 438.7203363 -66.84375 441.94140625 C-67.59430664 442.69050262 -68.34486328 443.439599 -69.11816406 444.21139526 C-70.73480248 445.82425243 -72.35259425 447.43595424 -73.97143555 449.04660034 C-76.53870378 451.60100992 -79.10275198 454.15861337 -81.66601562 456.71704102 C-88.03028353 463.06799685 -94.39999585 469.41348317 -100.76953125 475.75915527 C-106.1613943 481.13123735 -111.55117133 486.50539616 -116.93823242 491.8822937 C-119.45481523 494.39243095 -121.974409 496.89951836 -124.49414062 499.40649414 C-126.04832621 500.95704455 -127.60237008 502.50773702 -129.15625 504.05859375 C-130.19604004 505.09063431 -130.19604004 505.09063431 -131.25683594 506.14352417 C-135.18334496 510.06961111 -138.92156039 514.10391654 -142.54139805 518.31499481 C-144.20405833 520.23573213 -145.94136509 522.05620924 -147.74609375 523.84375 C-148.6597168 524.75253906 -148.6597168 524.75253906 -149.59179688 525.6796875 C-150.20087891 526.28039062 -150.80996094 526.88109375 -151.4375 527.5 C-152.07365234 528.13164063 -152.70980469 528.76328125 -153.36523438 529.4140625 C-154.90782806 530.94505774 -156.45357314 532.47287667 -158 534 C-160.88200767 532.69082745 -162.97149724 531.28662262 -165.22523117 529.0711441 C-166.1515688 528.16743049 -166.1515688 528.16743049 -167.09662032 527.24546003 C-168.1005172 526.25124186 -168.1005172 526.25124186 -169.12469482 525.23693848 C-169.84273419 524.53330815 -170.56077355 523.82967782 -171.30057168 523.10472536 C-173.71141759 520.73941391 -176.11502443 518.366884 -178.51855469 515.99414062 C-180.24296152 514.2986306 -181.96767501 512.60343241 -183.69267273 510.90852356 C-199.43573528 495.42603575 -215.11534896 479.87861088 -230.78002548 464.31685638 C-232.87650613 462.23439255 -234.97310497 460.15204781 -237.06982422 458.06982422 C-237.5909198 457.55231922 -238.11201538 457.03481423 -238.64890173 456.50162727 C-247.08270429 448.12789968 -255.55058646 439.78950582 -264.03248844 431.46453291 C-272.74927181 422.90769605 -281.43141895 414.31687092 -290.08191419 405.69301939 C-294.93626068 400.85545016 -299.8046813 396.03417725 -304.71297455 391.251297 C-309.3342426 386.74804778 -313.90806018 382.19998038 -318.45292091 377.61960411 C-320.12393692 375.95034063 -321.81033068 374.2963021 -323.51313591 372.65947914 C-337.63362511 359.05806377 -337.63362511 359.05806377 -338.3523013 349.71350849 C-338.31395636 343.60887 -337.64340138 337.62090251 -333.27008057 333.04162598 C-332.72003357 332.55786499 -332.16998657 332.074104 -331.60327148 331.57568359 C-331.0293013 331.00069122 -330.45533112 330.42569885 -329.8639679 329.83328247 C-327.98896213 327.97567054 -326.05921133 326.18988883 -324.12109375 324.3984375 C-322.78864987 323.10221153 -321.46026841 321.80179796 -320.13575745 320.49746704 C-316.6601272 317.09569444 -313.13447912 313.75100119 -309.59429932 310.41662598 C-306.01331582 307.02686742 -302.47969231 303.58855839 -298.94335938 300.15234375 C-294.95792445 296.2827457 -290.96891813 292.41806837 -286.94102478 288.59262085 C-286.01930481 287.71501099 -286.01930481 287.71501099 -285.07896423 286.81967163 C-283.9483257 285.74451472 -282.81514851 284.67201654 -281.67861938 283.60308838 C-278.85382396 280.91357326 -276.21669753 278.14401225 -273.6709137 275.18777466 C-269.64818863 270.52806269 -265.32791314 266.20257843 -260.96289062 261.86523438 C-260.08553757 260.98934158 -259.20818451 260.11344879 -258.304245 259.21101379 C-256.41094208 257.32149775 -254.5167703 255.43290552 -252.62101746 253.54585266 C-249.61649477 250.55497515 -246.61589982 247.5601772 -243.61584473 244.56481934 C-236.70653548 237.66749731 -229.79219804 230.77522318 -222.87779999 223.88300323 C-216.53509232 217.5605353 -210.19348165 211.23697701 -203.85592604 204.9093442 C-200.88042723 201.93879325 -197.9025163 198.9706893 -194.92266083 196.00450897 C-192.62547189 193.71660383 -190.33156952 191.42540687 -188.03710938 189.13476562 C-186.81497993 187.92038567 -186.81497993 187.92038567 -185.56816101 186.68147278 C-181.47052572 182.58421499 -177.56650488 178.40104691 -173.7856369 174.01148224 C-170.40173663 170.19959009 -166.76121781 166.64010218 -163.14648438 163.04882812 C-162.28863846 162.19244247 -161.43079254 161.33605682 -160.54695129 160.45372009 C-158.21606221 158.12759938 -155.88299632 155.80368839 -153.54907417 153.4806118 C-151.09321564 151.03481476 -148.64066187 148.58570883 -146.18786621 146.13684082 C-139.43336841 139.39432826 -132.6738416 132.65686488 -125.91425323 125.91945648 C-119.71337141 119.73881664 -113.51358811 113.55708509 -107.31786013 107.37127829 C-104.88298537 104.94054447 -102.44705516 102.51088859 -100.0085907 100.08375549 C-97.28796975 97.37515248 -94.57044536 94.66347672 -91.85351562 91.95117188 C-91.05746414 91.16028671 -90.26141266 90.36940155 -89.4412384 89.55455017 C-85.36518176 85.47887749 -81.48127785 81.31362424 -77.71956253 76.94736481 C-74.73132754 73.56325777 -71.53248937 70.39350414 -68.33642578 67.20703125 C-67.6054921 66.47434525 -66.87455841 65.74165924 -66.12147522 64.98677063 C-63.73191106 62.59284455 -61.3387552 60.20254783 -58.9453125 57.8125 C-57.2760481 56.14256145 -55.60693213 54.47247451 -53.93795776 52.80224609 C-50.45472678 49.31754626 -46.96970673 45.83464837 -43.48339844 42.35302734 C-39.00406888 37.8794257 -34.52928518 33.40130799 -30.0558033 28.92185974 C-26.61767562 25.4801309 -23.17718517 22.04077199 -19.7359581 18.60214233 C-18.08371348 16.95056662 -16.43221639 15.29824274 -14.78146744 13.64517212 C-12.48578316 11.3469653 -10.18694761 9.05195929 -7.88720703 6.7578125 C-6.85713783 5.72470695 -6.85713783 5.72470695 -5.80625916 4.67073059 C-5.18393906 4.05123032 -4.56161896 3.43173004 -3.92044067 2.79345703 C-3.37737841 2.25077179 -2.83431614 1.70808655 -2.27479744 1.1489563 C-1 0 -1 0 0 0 Z " fill="#267750" transform="translate(1316,475)"/>
<path d="M0 0 C2.97033404 1.33701341 5.05281659 2.80357387 7.35017014 5.10407448 C7.99559572 5.74551797 8.6410213 6.38696145 9.30600524 7.04784262 C10.3565935 8.1071694 10.3565935 8.1071694 11.42840576 9.18789673 C12.17911354 9.93689566 12.92982132 10.68589459 13.70327783 11.45759046 C16.22460943 13.97562046 18.73871322 16.50074597 21.25292969 19.02587891 C23.05602293 20.82953612 24.85955634 22.6327534 26.66349792 24.43556213 C30.5499058 28.32151415 34.43322274 32.21051428 38.31377411 36.102314 C43.92440421 41.72919672 49.54054743 47.35055008 55.15805247 52.97056834 C64.27188271 62.08877605 73.38123747 71.21144134 82.48779297 80.33691406 C91.33408254 89.20156108 100.18246982 98.06410553 109.03369141 106.92382812 C109.5792607 107.46992287 110.12483 108.01601761 110.6869317 108.57866068 C113.42389979 111.31823884 116.16090921 114.05777569 118.89793921 116.79729199 C141.60504011 139.52512703 164.3048836 162.26019748 187 185 C186.04827755 186.28307116 185.09460187 187.56469366 184.1401062 188.84570312 C183.60923841 189.55956177 183.07837063 190.27342041 182.53141594 191.00891113 C180.73444577 193.34526353 178.79493019 195.43268412 176.6953125 197.5 C175.57382813 198.61181641 175.57382813 198.61181641 174.4296875 199.74609375 C173.66914062 200.48988281 172.90859375 201.23367188 172.125 202 C171.34125 202.77472656 170.5575 203.54945313 169.75 204.34765625 C167.83786662 206.23647093 165.92119818 208.12041391 164 210 C161.11799233 208.69082745 159.02850276 207.28662262 156.77476883 205.0711441 C156.15721041 204.46866836 155.53965199 203.86619262 154.90337968 203.24546003 C153.8994828 202.25124186 153.8994828 202.25124186 152.87530518 201.23693848 C152.15726581 200.53330815 151.43922645 199.82967782 150.69942832 199.10472536 C148.28858241 196.73941391 145.88497557 194.366884 143.48144531 191.99414062 C141.75703848 190.2986306 140.03232499 188.60343241 138.30732727 186.90852356 C122.56426472 171.42603575 106.88465104 155.87861088 91.21997452 140.31685638 C89.12349387 138.23439255 87.02689503 136.15204781 84.93017578 134.06982422 C84.4090802 133.55231922 83.88798462 133.03481423 83.35109827 132.50162727 C74.91729571 124.12789968 66.44941354 115.78950582 57.96751156 107.46453291 C49.25072819 98.90769605 40.56858105 90.31687092 31.91808581 81.69301939 C27.06373932 76.85545016 22.1953187 72.03417725 17.28702545 67.251297 C12.6657574 62.74804778 8.09193982 58.19998038 3.54707909 53.61960411 C1.87606308 51.95034063 0.18966932 50.2963021 -1.51313591 48.65947914 C-15.68237292 35.01110795 -15.68237292 35.01110795 -16.23663926 25.58518267 C-16.15814026 19.60432063 -15.576476 14.80199758 -11.71875 9.9609375 C-9.66796875 8.0859375 -9.66796875 8.0859375 -7.5 6.375 C-6.78457031 5.74078125 -6.06914063 5.1065625 -5.33203125 4.453125 C-3.58842932 2.9187553 -1.81981122 1.44229719 0 0 Z " fill="#136549" transform="translate(994,799)"/>
<path d="M0 0 C0 4.39012021 -2.79132252 6.32125456 -5.6875 9.3125 C-6.75533416 10.43223376 -7.82175231 11.55331969 -8.88671875 12.67578125 C-9.41096436 13.22685547 -9.93520996 13.77792969 -10.4753418 14.34570312 C-11.93978419 15.93466416 -13.32085292 17.56498322 -14.6875 19.23828125 C-17.2561356 22.30589167 -19.87666808 24.53038872 -23 27 C-22.59528907 22.52687915 -19.45134001 20.15992643 -16.375 17.25 C-15.27803009 16.18556664 -14.18297263 15.11915881 -13.08984375 14.05078125 C-12.55858887 13.53209473 -12.02733398 13.0134082 -11.47998047 12.47900391 C-8.97927944 9.97995296 -6.68300678 7.31958817 -4.40234375 4.62109375 C-3.00193675 3.00223886 -1.53116482 1.49481669 0 0 Z " fill="#1C4638" transform="translate(1550,1431)"/>
<path d="M0 0 C0.66 0.33 1.32 0.66 2 1 C-1.38772897 5.69159716 -4.78185183 10.0299782 -9 14 C-9.66 13.67 -10.32 13.34 -11 13 C-7.37 8.71 -3.74 4.42 0 0 Z " fill="#224C3E" transform="translate(1565,1413)"/>
<path d="M0 0 C0 3.58912412 -0.66436554 4.10857029 -3 6.6875 C-3.556875 7.31011719 -4.11375 7.93273438 -4.6875 8.57421875 C-5.120625 9.04472656 -5.55375 9.51523438 -6 10 C-6.99 9.67 -7.98 9.34 -9 9 C-6.03 6.03 -3.06 3.06 0 0 Z " fill="#285143" transform="translate(1550,1431)"/>
<path d="M0 0 C0.66 0.33 1.32 0.66 2 1 C-2.455 4.465 -2.455 4.465 -7 8 C-7 7.01 -7 6.02 -7 5 C-5.46875 3.61328125 -5.46875 3.61328125 -3.5 2.3125 C-2.8503125 1.87550781 -2.200625 1.43851563 -1.53125 0.98828125 C-1.0259375 0.66214844 -0.520625 0.33601563 0 0 Z " fill="#234B3D" transform="translate(1458,1516)"/>
<path d="M0 0 C1.258125 0.12375 2.51625 0.2475 3.8125 0.375 C4.87404297 0.47941406 4.87404297 0.47941406 5.95703125 0.5859375 C8 1 8 1 11 3 C9 4 9 4 5.5 3.1875 C2 2 2 2 0 0 Z " fill="#76936E" transform="translate(838,1637)"/>
</svg>
